<?xml version="1.0" encoding="UTF-8"?>
<svg viewBox="0 0 512 512" version="1.1" xmlns="http://www.w3.org/2000/svg" xmlns:xlink="http://www.w3.org/1999/xlink">
  <style>
    :root { --anon-color: #C50; }
  </style>
	<defs>
		<linearGradient x1="50%" y1="0%" x2="50%" y2="100%" id="lg1">
			<stop stop-color="#FFF" stop-opacity="0" offset="0%" />
			<stop stop-color="#FFF" stop-opacity="0.25" offset="100%" />
		</linearGradient>
		<linearGradient x1="50%" y1="0%" x2="50%" y2="100%" id="lg2">
			<stop stop-color="#FFF" stop-opacity="0.25" offset="0%" />
			<stop stop-color="#FFF" stop-opacity="0" offset="100%" />
		</linearGradient>
		<linearGradient x1="50%" y1="0%" x2="50%" y2="100%" id="lg3">
			<stop stop-color="#FFF" stop-opacity="0" offset="0%" />
			<stop stop-color="#FFF" stop-opacity="0.1" offset="100%" />
		</linearGradient>
		<linearGradient x1="50%" y1="0%" x2="50%" y2="100%" id="lg4">
			<stop stop-color="#FFF" stop-opacity="0" offset="0%" />
			<stop stop-color="#FFF" stop-opacity="0.2" offset="100%" />
		</linearGradient>
		<linearGradient x1="50%" y1="0%" x2="50%" y2="100%" id="lg5">
			<stop stop-color="#FFF" stop-opacity="0.4" offset="0%" />
			<stop stop-color="#FFF" stop-opacity="0" offset="100%" />
		</linearGradient>
	</defs>
	<g id="User">
		<path id="U" fill="var(--anon-color)" d="M145.785,83.33 C143.429,95.406 143.859,113.384 147.123,139.198 C148.441,149.622 148.403,149.722 142.161,151.898 C134.645,154.518 132.863,159.816 134.741,173.968 C137.831,197.264 154.067,223.682 163.741,221.152 C167.135,220.264 168.217,221.784 170.995,231.34 C172.791,237.518 175.873,245.748 177.843,249.632 C186.561,266.81 191.985,313.432 188.009,337.002 L185.597,351.302 L155.245,364.434 C138.551,371.656 112.487,382.902 97.325,389.426 C82.161,395.95 64.683,404.304 58.483,407.99 C31.953,423.762 15.529,448.166 8.583,482.128 C5.045,499.434 5.049,499.608 9.171,505.128 L13.735,511.708 L497.677,511.708 L502.785,505.012 C507.433,498.918 507.165,499.162 502.785,482.128 C495.078,452.16 487.337,437.21 475.165,425.13 C460.773,410.846 445.907,402.612 396.893,381.776 C331.155,353.828 328.047,352.278 325.445,346.14 C324.125,343.026 323.113,329.98 323.081,315.692 C323.021,289.192 327.343,263.1 334.023,249.632 C335.949,245.748 338.995,237.518 340.791,231.34 C343.569,221.784 344.651,220.264 348.045,221.152 C357.719,223.682 373.955,197.264 377.045,173.968 C378.921,159.826 377.141,154.518 369.643,151.904 C363.521,149.77 363.399,149.49 364.619,140.204 C367.853,115.56 368.345,95.342 366.001,83.33 C358.653,45.666 327.213,15.216 286.893,6.714 C269.527,3.052 241.087,3.102 223.893,6.826 C184.439,15.37 153.045,46.118 145.785,83.33 Z" />
		<g id="F">
			<path id="O" fill="url(#lg1)" d="M223.893,6.826 C241.087,3.102 269.527,3.052 286.893,6.714 C327.213,15.216 358.653,45.666 366.001,83.33 C368.256,94.889 367.886,114.046 364.973,137.433 L364.298,142.731 C363.501,149.413 364.105,149.962 369.283,151.778 L369.643,151.904 C377.141,154.518 378.921,159.826 377.045,173.968 C373.955,197.264 357.719,223.682 348.045,221.152 C344.723,220.283 343.616,221.72 340.966,230.741 L340.791,231.34 C339.07,237.261 336.2,245.066 334.269,249.124 L334.023,249.632 C333.279,251.133 332.564,252.79 331.881,254.587 C313.729,289.754 286.914,312 257,312 C218.659,312 185.408,275.453 168.962,222.002 L167.344,222 C166.442,220.927 165.453,220.764 164.068,221.073 L163.741,221.152 C154.166,223.656 138.161,197.8 134.839,174.682 L134.741,173.968 C132.896,160.069 134.582,154.71 141.764,152.041 L143.739,151.337 C148.398,149.615 148.319,148.657 147.123,139.198 L146.772,136.362 C143.831,112.06 143.516,94.959 145.785,83.33 C153.045,46.118 184.439,15.37 223.893,6.826 Z" />
			<ellipse id="H" fill="url(#lg2)" cx="256" cy="69" rx="84" ry="57" />
			<ellipse id="C" fill="url(#lg3)" cx="256" cy="273" rx="34" ry="33" />
		</g>
		<g id="S">
			<path id="T" fill="url(#lg4)" d="M332.27,253.587 C326.708,267.544 323.167,290.66 323.082,314.275 L323.081,315.692 C323.112,329.7 324.085,342.514 325.368,345.946 L325.445,346.14 C327.865,351.848 330.722,353.589 383.987,376.284 L401.213,383.618 C446.798,403.112 461.205,411.275 475.165,425.13 C487.152,437.027 494.843,451.708 502.434,480.776 L504.253,487.83 C506.89,498.168 506.873,499.513 503.799,503.669 L502.785,505.012 L497.677,511.708 L13.735,511.708 L8.435,504.136 C5.063,499.517 5.269,498.335 8.583,482.128 C15.437,448.613 31.522,424.406 57.441,408.617 L58.483,407.99 C64.318,404.521 80.144,396.917 94.628,390.595 L155.245,364.434 L185.597,351.302 L188.009,337.002 C191.791,314.583 187.068,271.31 179.096,252.354 C197.536,289.322 225.98,312 257,312 C286.914,312 313.729,289.754 331.881,254.587 L332.27,253.587 Z" />
			<path id="R" fill="url(#lg5)" d="M133.725,387.42 C89.571,406.312 74.777,414.993 62.131,426.818 C20.967,465.306 54.103,459.19 73.266,456.118 C86.041,454.07 102.317,445.147 122.093,429.348 C145.713,410.53 158.823,397.732 170.849,381.754 C177.059,373.502 181.821,366.448 181.433,366.076 C181.043,365.704 175.325,368.14 168.725,371.49 C162.125,374.838 146.375,382.008 133.725,387.42 Z" />
			<path id="L" fill="url(#lg5)" d="M377.73,387.382 C421.884,406.274 436.678,414.955 449.324,426.78 C490.488,465.267 457.352,459.152 438.189,456.08 C425.414,454.032 409.138,445.108 389.362,429.31 C365.742,410.492 352.632,397.694 340.606,381.716 C334.396,373.464 329.634,366.41 330.022,366.038 C330.412,365.666 336.13,368.102 342.73,371.452 C349.33,374.8 365.08,381.97 377.73,387.382 Z" />
		</g>
	</g>
</svg>
